<svg width="25" height="25" viewBox="0 0 25 25" fill="none" xmlns="http://www.w3.org/2000/svg">
<path d="M21.9 14.2978V10.6022L19.9994 10.3911C19.7883 9.75754 19.5771 9.12402 19.2603 8.59609L20.4218 7.11788L17.7821 4.47821L16.3039 5.63966C15.776 5.3229 15.1425 5.11173 14.5089 4.90056L14.1922 3H10.6022L10.2855 4.90056C9.65196 5.00615 9.12402 5.3229 8.4905 5.63966L7.01229 4.47821L4.37263 7.01229L5.53408 8.4905C5.32291 9.12402 5.00615 9.75754 4.79497 10.3911L3 10.6022V14.2978L4.90056 14.5089C5.11173 15.1425 5.3229 15.776 5.63966 16.3039L4.47821 17.7821L7.11788 20.4218L8.59609 19.2603C9.12402 19.5771 9.75754 19.7883 10.3911 19.9994L10.6022 21.9H14.1922L14.4034 19.9994C15.0369 19.7883 15.6704 19.5771 16.1983 19.2603L17.6765 20.4218L20.3162 17.7821L19.1547 16.3039C19.4715 15.776 19.6827 15.1425 19.8939 14.5089L21.9 14.2978Z" stroke="#67758D" stroke-miterlimit="10"/>
<path d="M12.3974 15.7759C14.2634 15.7759 15.7762 14.2632 15.7762 12.3972C15.7762 10.5311 14.2634 9.01839 12.3974 9.01839C10.5313 9.01839 9.01862 10.5311 9.01862 12.3972C9.01862 14.2632 10.5313 15.7759 12.3974 15.7759Z" stroke="#67758D" stroke-miterlimit="10"/>
</svg>
