<svg width="23" height="23" viewBox="0 0 23 23" fill="none" xmlns="http://www.w3.org/2000/svg">
<path d="M11.0296 1.77832C11.1885 1.3378 11.8115 1.3378 11.9704 1.77832L14.0528 7.55311C14.2613 8.13137 14.8015 8.52388 15.4159 8.54351L21.5516 8.73948C22.0196 8.75443 22.2121 9.34694 21.8423 9.63415L16.9936 13.3991C16.5081 13.7762 16.3017 14.4113 16.4729 15.0016L18.1826 20.8976C18.313 21.3473 17.809 21.7135 17.4215 21.4505L12.3425 18.0026C11.8339 17.6573 11.1661 17.6573 10.6575 18.0026L5.57848 21.4505C5.19103 21.7135 4.68701 21.3473 4.81743 20.8976L6.52706 15.0016C6.69826 14.4113 6.49191 13.7762 6.00638 13.3991L1.15773 9.63415C0.787855 9.34694 0.980374 8.75443 1.44842 8.73948L7.58407 8.54351C8.19847 8.52388 8.73872 8.13137 8.94724 7.5531L11.0296 1.77832Z" stroke="#DCA95E"/>
</svg>
