<svg width="63" height="63" viewBox="0 0 63 63" fill="none" xmlns="http://www.w3.org/2000/svg">
<circle cx="31.5" cy="31.5" r="31.5" fill="#232D46"/>
<path d="M35.8 27.5001L41.1 27.4001C41.9 27.4001 43.3 28.2001 43.7 28.9001L46.4 32.7001C47.2 33.8001 47.7 35.3001 47.7 36.7001V40.9001C47.7 41.7001 47 42.4001 46.2 42.4001H45.4C44.7 40.0001 42.5 38.2001 39.8 38.2001C37.2 38.2001 34.9 40.0001 34.2 42.4001H27.3C26.6 40.0001 24.4 38.2001 21.7 38.2001C19.1 38.2001 16.8 40.0001 16.1 42.4001H15.5C14.7 42.4001 14 41.7001 14 40.9001V32.6001C14 33.4001 14.7 34.1001 15.5 34.1001H34.4C35.2 34.1001 35.9 33.4001 35.9 32.6001V27.5001H35.8Z" stroke="#C4CFDD" stroke-miterlimit="22.9256" stroke-linecap="round" stroke-linejoin="round"/>
<path d="M39.8994 41.2C41.4994 41.2 42.8994 42.5 42.8994 44.2C42.8994 45.8 41.5994 47.2 39.8994 47.2C38.2994 47.2 36.8994 45.9 36.8994 44.2C36.8994 42.6 38.2994 41.2 39.8994 41.2Z" stroke="#C4CFDD" stroke-miterlimit="22.9256" stroke-linecap="round" stroke-linejoin="round"/>
<path d="M21.8994 41.2C23.4994 41.2 24.8994 42.5 24.8994 44.2C24.8994 45.8 23.5994 47.2 21.8994 47.2C20.2994 47.2 18.8994 45.9 18.8994 44.2C18.8994 42.6 20.1994 41.2 21.8994 41.2Z" stroke="#C4CFDD" stroke-miterlimit="22.9256" stroke-linecap="round" stroke-linejoin="round"/>
<path d="M15.5 16H34.4C35.2 16 35.9 16.7 35.9 17.5V32.4C35.9 33.2 35.2 33.9 34.4 33.9H15.5C14.7 33.9 14 33.2 14 32.4V17.5C14 16.7 14.7 16 15.5 16Z" stroke="#C4CFDD" stroke-miterlimit="22.9256" stroke-linecap="round" stroke-linejoin="round"/>
</svg>
